{"title":"Dragons' Den (UK) S14E01","uid":15398157,"size":1063134175,"categoryP":"video","categoryS":"tv_shows","magnet":"?xt=urn:btih:a33a8181063aa25d3dffc547e877b3156adf6fba&amp;dn=Dragons%27+Den+%28UK%29+S14E01&amp;tr=udp%3A%2F%2Ftracker.leechers-paradise.org%3A6969&amp;tr=udp%3A%2F%2Fzer0day.ch%3A1337&amp;tr=udp%3A%2F%2Fopen.demonii.com%3A1337&amp;tr=udp%3A%2F%2Ftracker.coppersurfer.tk%3A6969&amp;tr=udp%3A%2F%2Fexodus.desync.com%3A6969","seeders":0,"leechers":1,"uploader":"RoaElson","files":2,"time":1469418815,"description":"Dragons' Den – S14E01\r\n\r\nDragons' Den is back and open for business for a fourteenth series. Peter Jones, Deborah Meaden, Touker Suleyman, Sarah Willingham and Nick Jenkins take their seats to face a fresh batch of entrepreneurs who dare to enter through the Den doors.\r\n\r\nIn the series opener, the Dragons ponder the investment opportunity in pint-sized pencils, oversized beanbags and a boot-cleaning device invented by a 15-year-old football fan. But will the revelation of a huge company debt mean it is game over for this fledgling family business?\r\n\r\nFirst shown: 9pm 24 July 2016\r\nDuration: 60 minutes\r\n\r\n\r\nMedia info:\r\n\r\nGeneral\r\nFormat : MPEG-4\r\nFormat profile : Base Media\r\nCodec ID : isom (isom/iso2/avc1/mp41)\r\nFile size : 1 013 MiB\r\nDuration : 59mn 13s\r\nOverall bit rate mode : Variable\r\nOverall bit rate : 2 392 Kbps\r\n\r\nVideo\r\nID : 1\r\nFormat : AVC\r\nFormat/Info : Advanced Video Codec\r\nFormat profile :   \r\nFormat settings, CABAC : Yes\r\nFormat settings, ReFrames : 2 frames\r\nCodec ID : avc1\r\nCodec ID/Info : Advanced Video Coding\r\nDuration : 59mn 13s\r\nBit rate mode : Variable\r\nBit rate : 2 293 Kbps\r\nMaximum bit rate : 3 500 Kbps\r\nWidth : 1 280 pixels\r\nHeight : 720 pixels\r\nDisplay aspect ratio : 16:9\r\nFrame rate mode : Constant\r\nFrame rate : 25.000 fps\r\nColor space : YUV\r\nChroma subsampling : 4:2:0\r\nBit depth : 8 bits\r\nScan type : Progressive\r\nBits/(Pixel*Frame) : 0.100\r\nStream size : 971 MiB (96%)\r\n\r\n\r\nAudio\r\nID : 2\r\nFormat : AAC\r\nFormat/Info : Advanced Audio Codec\r\nFormat profile : LC\r\nCodec ID : 40\r\nDuration : 59mn 12s\r\nBit rate mode : Constant\r\nBit rate : 93.5 Kbps\r\nChannel(s) : 2 channels\r\nChannel positions : Front: L R\r\nSampling rate : 48.0 KHz\r\nFrame rate : 46.875 fps (1024 spf)\r\nCompression mode : Lossy\r\nStream size : 39.6 MiB (4%)","torrent":{"xt":"urn:btih:a33a8181063aa25d3dffc547e877b3156adf6fba","amp;dn":"Dragons%27+Den+%28UK%29+S14E01","amp;tr":["udp%3A%2F%2Ftracker.leechers-paradise.org%3A6969","udp%3A%2F%2Fzer0day.ch%3A1337","udp%3A%2F%2Fopen.demonii.com%3A1337","udp%3A%2F%2Ftracker.coppersurfer.tk%3A6969","udp%3A%2F%2Fexodus.desync.com%3A6969"],"infoHash":"a33a8181063aa25d3dffc547e877b3156adf6fba","infoHashBuffer":{"type":"Buffer","data":[163,58,129,129,6,58,162,93,61,255,197,71,232,119,179,21,106,223,111,186]},"announce":[],"urlList":[]}}